<svg version="1.1" base-profile="full" width="655" height="750" xmlns="http://www.w3.org/2000/svg" ><rect x="0" y="0" width="40" height="650" fill="red" ></rect><text x="10" y="325" >English</text><rect x="45" y="550" width="125" height="100" fill="blue" ></rect><text x="76.25" y="600" >C</text><rect x="175" y="550" width="90" height="100" fill="green" ></rect><text x="197.5" y="600" >Hiphop</text><rect x="270" y="600" width="100" height="50" fill="yellow" ></rect><text x="295" y="625" >Codeforces</text><rect x="270" y="500" width="75" height="100" fill="red" ></rect><text x="288.75" y="550" >football</text><rect x="375" y="550" width="125" height="100" fill="blue" ></rect><text x="406.25" y="600" >Node.js</text><rect x="505" y="600" width="50" height="50" fill="green" ></rect><text x="517.5" y="625" >Social Psychology</text><line x1="0" x2="555" y1="650" y2="650" fill="transparent" stroke="orange" stroke-width="2" ></line><line x1="0" x2="555" y1="600" y2="600" fill="transparent" stroke="orange" stroke-width="2" ></line><line x1="0" x2="555" y1="550" y2="550" fill="transparent" stroke="orange" stroke-width="2" ></line><line x1="0" x2="555" y1="500" y2="500" fill="transparent" stroke="orange" stroke-width="2" ></line><line x1="0" x2="555" y1="450" y2="450" fill="transparent" stroke="orange" stroke-width="2" ></line><line x1="0" x2="555" y1="400" y2="400" fill="transparent" stroke="orange" stroke-width="2" ></line><line x1="0" x2="555" y1="350" y2="350" fill="transparent" stroke="orange" stroke-width="2" ></line><line x1="0" x2="555" y1="300" y2="300" fill="transparent" stroke="orange" stroke-width="2" ></line><line x1="0" x2="555" y1="250" y2="250" fill="transparent" stroke="orange" stroke-width="2" ></line><line x1="0" x2="555" y1="200" y2="200" fill="transparent" stroke="orange" stroke-width="2" ></line><line x1="0" x2="555" y1="150" y2="150" fill="transparent" stroke="orange" stroke-width="2" ></line><line x1="0" x2="555" y1="100" y2="100" fill="transparent" stroke="orange" stroke-width="2" ></line><line x1="0" x2="555" y1="50" y2="50" fill="transparent" stroke="orange" stroke-width="2" ></line><text x="555" y="625" >2014</text><text x="555" y="575" >2013</text><text x="555" y="525" >2012</text><text x="555" y="475" >2011</text><text x="555" y="425" >2010</text><text x="555" y="375" >2009</text><text x="555" y="325" >2008</text><text x="555" y="275" >2007</text><text x="555" y="225" >2006</text><text x="555" y="175" >2005</text><text x="555" y="125" >2004</text><text x="555" y="75" >2003</text><text x="555" y="25" >2002</text><text x="100" y="100" >Hello world! This is Skill Graph -- Timeline</text></svg>