<svg version="1.1" base-profile="full" width="705" height="750" xmlns="http://www.w3.org/2000/svg" ><line x1="50" x2="605" y1="50" y2="50" fill="transparent" stroke="#ddd" stroke-width="2" ></line><line x1="50" x2="605" y1="100" y2="100" fill="transparent" stroke="#ddd" stroke-width="2" ></line><line x1="50" x2="605" y1="150" y2="150" fill="transparent" stroke="#ddd" stroke-width="2" ></line><line x1="50" x2="605" y1="200" y2="200" fill="transparent" stroke="#ddd" stroke-width="2" ></line><line x1="50" x2="605" y1="250" y2="250" fill="transparent" stroke="#ddd" stroke-width="2" ></line><line x1="50" x2="605" y1="300" y2="300" fill="transparent" stroke="#ddd" stroke-width="2" ></line><line x1="50" x2="605" y1="350" y2="350" fill="transparent" stroke="#ddd" stroke-width="2" ></line><line x1="50" x2="605" y1="400" y2="400" fill="transparent" stroke="#ddd" stroke-width="2" ></line><line x1="50" x2="605" y1="450" y2="450" fill="transparent" stroke="#ddd" stroke-width="2" ></line><line x1="50" x2="605" y1="500" y2="500" fill="transparent" stroke="#ddd" stroke-width="2" ></line><line x1="50" x2="605" y1="550" y2="550" fill="transparent" stroke="#ddd" stroke-width="2" ></line><line x1="50" x2="605" y1="600" y2="600" fill="transparent" stroke="#ddd" stroke-width="2" ></line><line x1="50" x2="605" y1="650" y2="650" fill="transparent" stroke="#ddd" stroke-width="2" ></line><rect x="50" y="0" width="40" height="650" fill="#99FF66" ></rect><text x="55" y="325" font-family="sans-serif" >English</text><rect x="95" y="550" width="125" height="100" fill="#66CCFF" ></rect><text x="110.625" y="600" font-family="sans-serif" >C</text><rect x="225" y="550" width="90" height="100" fill="#FFCC66" ></rect><text x="236.25" y="600" font-family="sans-serif" >Hiphop</text><rect x="320" y="600" width="100" height="50" fill="#CCCCFF" ></rect><text x="332.5" y="625" font-family="sans-serif" >Codeforces</text><rect x="320" y="500" width="75" height="100" fill="#99FF66" ></rect><text x="329.375" y="550" font-family="sans-serif" >football</text><rect x="425" y="550" width="125" height="100" fill="#66CCFF" ></rect><text x="440.625" y="600" font-family="sans-serif" >Node.js</text><rect x="555" y="600" width="50" height="50" fill="#FFCC66" ></rect><text x="561.25" y="625" font-family="sans-serif" >Social Psychology</text><text x="10" y="625" font-family="sans-serif" >2014</text><text x="10" y="575" font-family="sans-serif" >2013</text><text x="10" y="525" font-family="sans-serif" >2012</text><text x="10" y="475" font-family="sans-serif" >2011</text><text x="10" y="425" font-family="sans-serif" >2010</text><text x="10" y="375" font-family="sans-serif" >2009</text><text x="10" y="325" font-family="sans-serif" >2008</text><text x="10" y="275" font-family="sans-serif" >2007</text><text x="10" y="225" font-family="sans-serif" >2006</text><text x="10" y="175" font-family="sans-serif" >2005</text><text x="10" y="125" font-family="sans-serif" >2004</text><text x="10" y="75" font-family="sans-serif" >2003</text><text x="10" y="25" font-family="sans-serif" >2002</text></svg>